<?xml version="1.0" encoding="utf-8"?>
<!-- Generator: Adobe Illustrator 16.0.0, SVG Export Plug-In . SVG Version: 6.00 Build 0)  -->
<!DOCTYPE svg PUBLIC "-//W3C//DTD SVG 1.1//EN" "http://www.w3.org/Graphics/SVG/1.1/DTD/svg11.dtd">
<svg version="1.1" id="Layer_1" xmlns="http://www.w3.org/2000/svg" xmlns:xlink="http://www.w3.org/1999/xlink" x="0px" y="0px"
	 width="287.5px" height="358.25px" viewBox="0 0 287.5 358.25" enable-background="new 0 0 287.5 358.25" xml:space="preserve">
<line fill="#FFFFFF" stroke="#000000" stroke-width="3" stroke-miterlimit="10" x1="138.447" y1="11" x2="138.447" y2="27.5"/>
<g>
	<path d="M239.107,205.725l5.672,19.39l0.224,8.538l-5.519,38.873l-5.719,11.562l-5.082,8.459l0,0l0,0l-3.832,7.188l-8.31,14.604
		l-8.817,7.004l-25.668,18.188l-6.373,2.555l-33.252,6.17l-19.45-0.404l-25.078-4.803l-21.746-10.422L54.921,316.6l-7.409-8.828
		l-17.729-33.719l-2.397-11.117l-2.794-24.076l-0.687-13.502l7.118-22.879l2.953,0.963l-6.182,18.746l6.516-3.385l11.277-6.328
		l4.196-2.36l-1.235-1.64l-5.449-12.406l-3.739-7.971l-3.385,9.801l-0.644,3.175l-1.417,2.477l0,0l-2.893-1.067l5.106-15.293
		l6.461-10.205l14.414-15.312l13.436-12.782l10.539-5.242l18.784-8.587l13.178-5.628l11.026-0.133l13.403,0.178l9.627-0.027
		l10.512,0.374l14.15,6.167l5.2,2.404l3.283,1.178l3.887,2.496l13.017,6.522l12.89,11.658l19.998,22.034l3.922,7.857l3.69,11.58
		 M175.779,269.877l4.051-12.141l-26.732,4.965l15.422,21.666l3.356-7.465L175.779,269.877l2.711,0.607l-6.588,14.996l28.08-4.437
		l-16.465-22.358l-5.027,11.799L175.779,269.877L175.779,269.877z M235.775,269.042l0.953-0.446l1.582-12.365l1.856-11.496
		l1.959-13.094l-24.459,14.803L235.775,269.042L235.775,269.042z M69.717,153.979l-26.36,27.227l0.443,0.769l7.076,0.391l6-0.879
		l3.179,1.32l11.197,1.146L69.717,153.979L69.717,153.979z M110.352,133.868l-34.526,15.975l15.358,6.446l9.893,4.173l2.604,1.241
		l3.925-16.294L110.352,133.868L110.352,133.868z M137.062,344.814l0.607,0.652l36.927-6.418l-21.688-18.484L137.062,344.814
		L137.062,344.814z M227.002,183.714l-25.229-27.305l-0.979,0.33l-2.243,28.579L227.002,183.714L227.002,183.714z M163.654,147.879
		l3.223,11.863l1.779,1.719l12.08-4.387l3.229-1.011l4.024-1.858l6.979-3l-33.746-16.641l2.18,10.24 M113.76,320.059l-22.069,18.07
		l36.696,7.184l0.455-0.938L113.76,320.059L113.76,320.059z M31.396,267.533l19.295-22.911l-23.875-15.38L31.396,267.533
		L31.396,267.533z M40.983,291.029l5.372,7.435l5.21,9.577l10.804-26.083l-28.23-7.534l1.096,2.911l5.216,10.087L40.983,291.029
		L40.983,291.029z M234.172,276.521l-28.936,7.043l4.248,9.922l1.738,4.231l1.25,4.989l3.241,7L234.172,276.521L234.172,276.521z
		 M62.182,278.531l-9.658-30.887l-19.379,22.974l14.848,3.901l0,0l1.916,0.385L62.182,278.531L62.182,278.531z M73.534,165.278
		l1.494,16.919l25.83-18.271l-13.854-5.576l-13.388-5.421l-0.08,10.235l0,0L73.534,165.278l-0.315,1.372l-1.339-1.418
		L73.534,165.278z M133.087,344.801l16.161-25.047l-31.366-0.504l-0.529,0.822l8.714,12.986l0.691,1.327L133.087,344.801
		L133.087,344.801z M205.668,279.959l28.867-7.229l-18.482-22.994l-5.223,14.775L205.668,279.959L205.668,279.959z M170.227,164.485
		l12.147,9.423l12.989,10.199l2.07-30.006L170.227,164.485L170.227,164.485z M133.765,293.436l-16.188,22.604l11.952,0.228
		l9.494,0.205l10.28,0.002L133.765,293.436L133.765,293.436z M192.039,186.624l-24.301-18.198l-0.856,27.154l14.104-6.033
		L192.039,186.624L192.039,186.624z M202.66,278.33l10.057-30.025l-26.144,8.174l8.305,11.271L202.66,278.33L202.66,278.33z
		 M89.634,190.314l12.83,4.371l0.351-2.945l-0.238-24.918l0,0l-26.02,18.311l9.099,3.135 M168.984,197.831l9.941,10.285
		l11.372,9.405l4.362-27.722L168.984,197.831L168.984,197.831z M114.437,314.441l6.289-8.436l1.561-2.545l4.018-5.298l0,0
		l4.23-6.435l-29.023-2.779L114.437,314.441L114.437,314.441z M56.173,247.066l2.419,8.11l2.702,9.526l3.992,12.281l16.922-21.848
		L56.173,247.066L56.173,247.066z M84.652,257.589l-16.787,21.927l14.36,2.803l0,0l13.771,2.375L84.652,257.589L84.652,257.589z
		 M163.419,194.077l0.968-27.153L138.4,179.405l10.417,6.244l5.688,3.138L163.419,194.077L163.419,194.077z M166.076,289.624
		l-29.554,2.222l6.711,7.889l9.031,15.279L166.076,289.624L166.076,289.624z M56.507,243.441l26.378,8.391l-6.291-28.604
		L56.507,243.441L56.507,243.441z M120.159,186.004l11.56-6.695l-25.653-12.846l0.089,27.971l0,0 M75.604,188.482l-0.85,0.703
		l2.774,8.92l0.233,1.719l1.225,16.525l12.561-9.43l4.417-4.27l5.66-4.973L75.604,188.482L75.604,188.482z M212.064,245.001
		l-17.875-18.678l-1.711-2.624l-7.076,29.46l11.142-3.437l3.129-0.332l2.159-1.265L212.064,245.001L212.064,245.001z
		 M81.294,219.062l12.944,4.705l0,0l12.013,4.015l-3.111-27.401L81.294,219.062L81.294,219.062z M137.05,288.163l28.763-2.162
		l-15.229-21.282L137.05,288.163L137.05,288.163z M115.01,262.186l-27.074-5.476l10.887,26.519l7.933-9.258l1.922-3.445
		L115.01,262.186L115.01,262.186z M116.221,286.029l14.242,1.906l-12.922-23.805l-15.8,21.395L116.221,286.029 M80.294,222.605
		l1.584,10.728l1.049,5.253l2.557,11.768l0,0l0.908,0.146l18.86-19.671 M175.966,244.891l3.228,3.688l3.057,3.49l6.71-28.248
		l-24.758,7.742l8.633,10.738 M166.408,201.16L166.408,201.16l-2.68,19.537l-1.274,8.4l2.589-0.863l11.268-3.537l3.871-1.143
		l7.4-2.253l0.374-0.821 M161.457,197.436l-24.961-15.271l-0.125,26.824L161.457,197.436L161.457,197.436z M133.017,208.586
		l0.307-26.381l-25.003,14.503l10.542,4.479L133.017,208.586L133.017,208.586z M152.814,259.225l14.924-2.096l6.767-1.163
		l5.507-1.538l-18.559-20.43L152.814,259.225L152.814,259.225z M107.222,233.475l-18.083,19.039l0.343,0.826l9.523,2.398l8.109,1.99
		l7.933,0.769L107.222,233.475L107.222,233.475z M120.474,218.775l11.04-7.03l-24.774-11.853l0.751,13.525l0.687,2.271l1.351,10.729
		l8.579-6.171L120.474,218.775z M159.393,228.021l3.496-27.496l-25.03,11.104l10.18,6.253L159.393,228.021L159.393,228.021z
		 M147.302,263.223l-26.848-0.369l1.608,2.776l9.656,17.599l2.438,3.051L147.302,263.223L147.302,263.223z M240.932,228.309
		l-21.105-12.172l-0.956,8.295l-0.386,6.194l-0.951,5.978l-0.266,6.28L240.932,228.309L240.932,228.309z M84.754,311.48
		l2.216,11.549l2.608,12.27l14.7-10.171l5.475-6.714L84.754,311.48L84.754,311.48z M212.695,311.838l-10.036-26.021l-14.903,22.932
		L212.695,311.838L212.695,311.838z M131.723,150.732l-17.672-16.7l-3.164,9.382l-0.497,3.754l-3.543,13.544l10.134-3.787
		l4.438-0.69L131.723,150.732L131.723,150.732z M28.804,225.566l-0.137,1.012l22.82,14.502l-1.549-27.167L28.804,225.566
		L28.804,225.566z M201.229,188.457l-0.365,0.895l16.525,20.324l10.637-22.789L201.229,188.457L201.229,188.457z M64.946,284.566
		l-10.679,25.617l15.731-1.867l0,0l9.103-1.055L64.946,284.566L64.946,284.566z M69.298,187.152l-27.413-2.295l10.139,22.824
		l6.412-7.201l5.826-7.112l1.097,2.038l-1.174-1.652L69.298,187.152L69.298,187.152z M177.468,336.971l5.121-24.562l-26.344,6.569
		l6.585,5.371l4.525,4.349l4.429,3.626L177.468,336.971L177.468,336.971z M241.027,224.129l-10.411-33.295l-0.728-0.043
		l-10.115,21.714l12.697,5.212l-0.979,1.412L241.027,224.129L241.027,224.129z M163.143,161.176l0.219-1.661l-6.19-26.751
		l-2.511,3.683l-5.055,4.699l-10.829,9.988l7.086,3.073l6.037,2.128L163.143,161.176L163.143,161.176z M117.814,132.436l1.222,1.826
		l13.316,12.32l2.069,2.801l19.16-16.432L117.814,132.436L117.814,132.436z M56.374,313.473l28.139,20.913l0.687-0.399L81.363,313.5
		l-3.544-2.432l-10.07,1.037L56.374,313.473L56.374,313.473z M183.781,323.195l-2.749,13.037l28.815-20.611l-21.125-3.312
		l-2.529,0.875l-0.26,11.371L183.781,323.195L183.781,323.195z M199.23,285.334l-0.76-0.65l-26.746,4.195l13.199,18.194
		L199.23,285.334L199.23,285.334z M132.09,177.32l1.282-1.417l0.225-21.778l-24.773,9.526L132.09,177.32L132.09,177.32z
		 M54.437,210.225l21.302,7.416l-3.793-28.007L54.437,210.225L54.437,210.225z M53.986,228.839l0.866,10.509l0.844,0.258
		l18.881-18.975l-21.031-7.097l0.693,10.829 M84.959,307.995l25.223,6.858l0.409-0.761l-12.065-23.911L84.959,307.995
		L84.959,307.995z M155.43,167.038l5.564-2.921l-3.581-1.751l-8.498-3.245l-9.676-3.849l-2.731-2.058l-0.082,9.954l0.442,10.187
		l-0.2,3.412l11.037-5.351l4.793-2.63L155.43,167.038z M215.066,212.273l-16.793-20.545l-0.838,0.342l-1.094,10.896l-2.867,15.646
		l7.935-2.047l6.204-2.27L215.066,212.273L215.066,212.273z M169.346,291.344l-1.808-0.457l-10.69,24.406l12.213-3.212l1.244-0.437
		l11.995-2.445L169.346,291.344L169.346,291.344z M82.214,306.391l13.404-18.418l-27.716-4.91l6.309,8.23L82.214,306.391
		L82.214,306.391z M213.838,241.334l2.092-25.879l-21.496,6.723l8.129,8.086l4.529,4.478L213.838,241.334L213.838,241.334z
		 M136.129,222.029l-0.222,2.629l-0.307,12.171l2.886-0.435l16.03-5.285l2.324-1.24l-20.063-14.977l-0.818,3.312L136.129,222.029z
		 M127.197,245.623l4.38-5.9l-20.613-6.875l7.587,24.258l0,0l7.197-9.205 M137.176,239.98l12.713,17.89l8.163-24.417L137.176,239.98
		L137.176,239.98z M132.924,215.573l-0.827-0.437l-20.395,14.516l20.969,6.988L132.924,215.573L132.924,215.573z M135.963,260.418
		l10.866-0.943l-12.582-17.66L121.3,259.499l10.355,0.211l3.688,0.383 M161.77,230.884L161.77,230.884"/>
	<polygon fill="#FFFFFF" points="235.775,269.042 217.669,246.441 242.128,231.641 240.169,244.734 238.311,256.229 
		236.729,268.596 	"/>
	<polygon fill="#FFFFFF" points="227.002,183.714 198.551,185.318 200.794,156.739 201.771,156.409 	"/>
	<polyline fill="#FFFFFF" points="209.484,293.486 205.236,283.564 234.172,276.521 234.172,276.521 215.716,309.709 
		212.473,302.709 	"/>
	<polygon fill="#FFFFFF" points="205.668,279.959 210.83,264.511 216.053,249.734 234.535,272.729 	"/>
	<polygon fill="#FFFFFF" points="177.625,271.848 178.49,270.484 183.52,258.688 199.982,281.046 171.902,285.48 177.625,271.848 
		177.625,271.848 178.49,270.484 	"/>
	<polygon fill="#FFFFFF" points="161.457,197.436 136.371,208.988 136.496,182.162 	"/>
	<polygon fill="#FFFFFF" points="212.695,311.838 187.756,308.746 202.659,285.816 	"/>
	<polygon fill="#FFFFFF" points="131.723,150.732 122.917,155.435 116.98,156.926 106.847,160.713 110.39,147.169 111.271,142.27 
		114.051,134.033 	"/>
	<polygon fill="#FFFFFF" points="28.804,225.566 49.938,213.913 51.486,241.08 28.667,226.578 	"/>
	<polygon fill="#FFFFFF" points="201.229,188.457 228.025,186.886 217.389,209.676 200.863,189.352 	"/>
	<polyline fill="#FFFFFF" points="58.437,200.48 52.024,207.682 41.885,184.857 69.298,187.152 69.298,187.152 64.186,193.754 	"/>
	<polygon fill="#FFFFFF" points="241.027,224.129 236.357,221.68 231.494,219.129 219.773,212.505 229.891,190.791 230.616,190.834 
			"/>
	<polygon fill="#FFFFFF" points="33.915,203.546 35.332,201.068 35.975,197.896 39.36,188.096 43.099,196.066 48.548,208.473 
		47.371,211.564 38.951,215.852 38.432,216.658 27.793,222.186 33.976,203.438 	"/>
	<polygon fill="#FFFFFF" points="183.781,323.195 185.598,316.938 186.193,313.184 188.725,312.309 209.848,315.621 
		181.032,336.232 	"/>
	<polygon fill="#FFFFFF" points="199.23,285.334 184.926,307.073 171.727,288.879 198.473,284.684 	"/>
	<polygon fill="#FFFFFF" points="132.09,177.32 108.823,163.651 133.597,154.125 134.04,177.589 	"/>
	<polygon fill="#FFFFFF" points="54.437,210.225 71.945,189.634 75.738,217.641 	"/>
	<polygon fill="#FFFFFF" points="84.959,307.995 98.525,290.184 110.591,314.096 110.182,314.854 	"/>
</g>
<circle fill="#E05619" cx="134.436" cy="238.068" r="6.561"/>
<circle fill="#E05619" cx="134.875" cy="212.522" r="6.561"/>
<circle fill="#E05619" cx="107.858" cy="228.95" r="6.56"/>
<circle fill="#E05619" cx="117.775" cy="260.666" r="6.561"/>
<circle fill="#E05619" cx="150.098" cy="261.202" r="6.562"/>
<circle fill="#E05619" cx="160.85" cy="232.118" r="6.562"/>
<circle fill="#E05619" cx="165.282" cy="198.544" r="6.562"/>
<circle fill="#E05619" cx="134.543" cy="179.55" r="6.56"/>
<circle fill="#E05619" cx="106.292" cy="196.29" r="6.56"/>
<circle fill="#E05619" cx="78.613" cy="220.53" r="6.56"/>
<circle fill="#E05619" cx="86.794" cy="253.947" r="6.561"/>
<circle fill="#E05619" cx="99.428" cy="287.096" r="6.56"/>
<circle fill="#E05619" cx="133.775" cy="289.852" r="6.561"/>
<circle fill="#E05619" cx="168.035" cy="286.653" r="6.561"/>
<circle fill="#E05619" cx="183.109" cy="255.551" r="6.561"/>
<circle fill="#E05619" cx="191.195" cy="221.096" r="6.56"/>
<path fill="#E05619" d="M204.166,186.389c1.08,3.454-0.846,7.133-4.305,8.215s-7.139-0.845-8.219-4.299
	c-1.082-3.459,0.844-7.14,4.303-8.221C199.404,181.002,203.085,182.93,204.166,186.389z"/>
<circle fill="#E05619" cx="166.094" cy="162.812" r="6.56"/>
<circle fill="#E05619" cx="135.7" cy="151.691" r="6.56"/>
<circle fill="#E05619" cx="104.188" cy="163.322" r="6.56"/>
<circle fill="#E05619" cx="72.706" cy="186.914" r="6.561"/>
<circle fill="#E05619" cx="52.42" cy="212.105" r="6.561"/>
<path fill="#E05619" d="M59.834,241.941c1.08,3.455-0.846,7.136-4.304,8.217c-3.459,1.082-7.138-0.846-8.219-4.301
	c-1.081-3.459,0.845-7.14,4.304-8.219C55.073,236.559,58.753,238.482,59.834,241.941z"/>
<circle fill="#E05619" cx="65.141" cy="280.896" r="6.56"/>
<circle fill="#E05619" cx="81.055" cy="309.805" r="6.561"/>
<circle fill="#E05619" cx="115.511" cy="316.55" r="6.56"/>
<circle fill="#E05619" cx="152.328" cy="317.267" r="6.56"/>
<path fill="#E05619" d="M191.363,307.723c1.08,3.454-0.846,7.135-4.307,8.217c-3.455,1.082-7.137-0.847-8.217-4.301
	c-1.081-3.457,0.848-7.138,4.303-8.218C186.604,302.339,190.284,304.266,191.363,307.723z"/>
<circle fill="#E05619" cx="201.73" cy="282.715" r="6.561"/>
<path fill="#E05619" d="M220.816,243.759c1.08,3.457-0.846,7.136-4.308,8.22c-3.454,1.08-7.136-0.848-8.216-4.305
	c-1.081-3.455,0.848-7.134,4.303-8.215C216.059,238.377,219.736,240.303,220.816,243.759z"/>
<path fill="#E05619" d="M224.023,210.052c1.082,3.457-0.844,7.138-4.307,8.22c-3.455,1.08-7.137-0.846-8.217-4.303
	c-1.081-3.455,0.846-7.135,4.302-8.217C219.266,204.671,222.943,206.598,224.023,210.052z"/>
<circle fill="#E05619" cx="230.325" cy="186.229" r="6.561"/>
<path fill="#E05619" d="M205.404,150.518c1.082,3.456-0.846,7.135-4.307,8.217c-3.457,1.082-7.137-0.845-8.218-4.301
	c-1.08-3.456,0.849-7.136,4.304-8.216C200.646,145.135,204.325,147.062,205.404,150.518z"/>
<circle fill="#E05619" cx="157.909" cy="131.001" r="6.561"/>
<path fill="#E05619" d="M119.318,127.435c1.08,3.456-0.847,7.136-4.307,8.218c-3.456,1.081-7.136-0.846-8.216-4.302
	c-1.081-3.457,0.845-7.136,4.301-8.217C114.558,122.052,118.236,123.979,119.318,127.435z"/>
<circle fill="#E05619" cx="69.443" cy="147.245" r="6.561"/>
<path fill="#E05619" d="M45.508,181.671c1.081,3.456-0.846,7.136-4.307,8.218c-3.456,1.08-7.136-0.846-8.216-4.302
	c-1.082-3.457,0.846-7.136,4.302-8.217C40.748,176.288,44.426,178.214,45.508,181.671z"/>
<path fill="#E05619" d="M30.048,224.202c1.081,3.457-0.846,7.136-4.307,8.218c-3.456,1.08-7.135-0.846-8.216-4.303
	c-1.08-3.455,0.846-7.135,4.302-8.217C25.288,218.818,28.968,220.747,30.048,224.202z"/>
<circle fill="#E05619" cx="30.421" cy="272.904" r="6.56"/>
<circle fill="#E05619" cx="51.565" cy="312.154" r="6.56"/>
<path fill="#E05619" d="M93.603,335.634c1.08,3.454-0.846,7.134-4.308,8.216c-3.456,1.082-7.136-0.846-8.216-4.3
	c-1.08-3.456,0.846-7.136,4.302-8.216C88.843,330.251,92.521,332.178,93.603,335.634z"/>
<ellipse transform="matrix(-0.9544 0.2984 -0.2984 -0.9544 365.0224 638.5066)" fill="#E05619" cx="133.762" cy="347.122" rx="6.561" ry="6.554"/>
<ellipse fill="#E05619" cx="179.917" cy="339.566" rx="6.556" ry="6.556"/>
<ellipse transform="matrix(-0.9544 0.2984 -0.2984 -0.9544 514.118 551.2004)" fill="#E05619" cx="214.984" cy="314.844" rx="6.561" ry="6.554"/>
<circle fill="#E05619" cx="238.205" cy="273.259" r="6.56"/>
<path fill="#E05619" d="M250.419,225.091c1.079,3.453-0.847,7.134-4.31,8.216c-3.455,1.08-7.135-0.848-8.215-4.301
	c-1.08-3.457,0.848-7.136,4.303-8.216C245.658,219.707,249.338,221.634,250.419,225.091z"/>
<text transform="matrix(0.997 -0.0774 0.0774 0.997 129.3945 242.041)" fill="#FFFFFF" font-family="'MyriadPro-Regular'" font-size="10.378">90</text>
<text transform="matrix(0.9941 -0.1082 0.1082 0.9941 103.7578 233.4053)" fill="#FFFFFF" font-family="'MyriadPro-Regular'" font-size="10.378">89</text>
<text transform="matrix(0.996 -0.0896 0.0896 0.996 113.2695 264.4717)" fill="#FFFFFF" font-family="'MyriadPro-Regular'" font-size="10.378">88</text>
<text transform="matrix(0.9991 0.0418 -0.0418 0.9991 144.6094 264.6621)" fill="#FFFFFF" font-family="'MyriadPro-Regular'" font-size="10.378">87</text>
<text transform="matrix(0.994 -0.1091 0.1091 0.994 155.1523 236.7764)" fill="#FFFFFF" font-family="'MyriadPro-Regular'" font-size="10.3774">86</text>
<text transform="matrix(0.9988 -0.0484 0.0484 0.9988 130.6523 215.8105)" fill="#FFFFFF" font-family="'MyriadPro-Regular'" font-size="10.378">85</text>
<text transform="matrix(0.9988 -0.0484 0.0484 0.9988 101.5654 199.7861)" fill="#FFFFFF" font-family="'MyriadPro-Regular'" font-size="10.378">84</text>
<text transform="matrix(0.9988 -0.0484 0.0484 0.9988 74.333 223.7822)" fill="#FFFFFF" font-family="'MyriadPro-Regular'" font-size="10.378">83</text>
<text transform="matrix(0.9988 -0.0484 0.0484 0.9988 81.8506 258.0947)" fill="#FFFFFF" font-family="'MyriadPro-Regular'" font-size="10.378">82</text>
<text transform="matrix(0.9988 -0.0484 0.0484 0.9988 94.6924 291.292)" fill="#FFFFFF" font-family="'MyriadPro-Regular'" font-size="10.378">81</text>
<text transform="matrix(0.9988 -0.0484 0.0484 0.9988 128.9131 293.3633)" fill="#FFFFFF" font-family="'MyriadPro-Regular'" font-size="10.378">80</text>
<text transform="matrix(0.9988 -0.0484 0.0484 0.9988 162.4473 290.7451)" fill="#FFFFFF" font-family="'MyriadPro-Regular'" font-size="10.378">79</text>
<text transform="matrix(0.9988 -0.0484 0.0484 0.9988 178.7773 259.3887)" fill="#FFFFFF" font-family="'MyriadPro-Regular'" font-size="10.378">78</text>
<text transform="matrix(0.9988 -0.0484 0.0484 0.9988 186.2617 224.999)" fill="#FFFFFF" font-family="'MyriadPro-Regular'" font-size="10.378">77</text>
<text transform="matrix(0.9988 -0.0484 0.0484 0.9988 159.9844 202.1396)" fill="#FFFFFF" font-family="'MyriadPro-Regular'" font-size="10.378">76</text>
<text transform="matrix(0.9988 -0.0484 0.0484 0.9988 129.2451 183.1455)" fill="#FFFFFF" font-family="'MyriadPro-Regular'" font-size="10.378">75</text>
<text transform="matrix(0.9988 -0.0484 0.0484 0.9988 99.5049 167.2324)" fill="#FFFFFF" font-family="'MyriadPro-Regular'" font-size="10.378">74</text>
<text transform="matrix(0.9988 -0.0484 0.0484 0.9988 67.0068 189.8311)" fill="#FFFFFF" font-family="'MyriadPro-Regular'" font-size="10.378">73</text>
<text transform="matrix(0.9988 -0.0484 0.0484 0.9988 46.8096 215.5693)" fill="#FFFFFF" font-family="'MyriadPro-Regular'" font-size="10.378">72</text>
<text transform="matrix(0.9988 -0.0484 0.0484 0.9988 47.9619 247.3623)" fill="#FFFFFF" font-family="'MyriadPro-Regular'" font-size="10.378">71</text>
<text transform="matrix(0.9988 -0.0484 0.0484 0.9988 60.5283 284.2969)" fill="#FFFFFF" font-family="'MyriadPro-Regular'" font-size="10.378">70</text>
<text transform="matrix(0.9988 -0.0484 0.0484 0.9988 76.708 313.3975)" fill="#FFFFFF" font-family="'MyriadPro-Regular'" font-size="10.378">69</text>
<text transform="matrix(0.9988 -0.0484 0.0484 0.9988 110.9492 319.8447)" fill="#FFFFFF" font-family="'MyriadPro-Regular'" font-size="10.378">68</text>
<text transform="matrix(0.9988 -0.0484 0.0484 0.9988 147.2568 321.1445)" fill="#FFFFFF" font-family="'MyriadPro-Regular'" font-size="10.378">67</text>
<text transform="matrix(0.9988 -0.0484 0.0484 0.9988 179.9785 312.9463)" fill="#FFFFFF" font-family="'MyriadPro-Regular'" font-size="10.378">66</text>
<text transform="matrix(0.9988 -0.0484 0.0484 0.9988 196.6064 285.9824)" fill="#FFFFFF" font-family="'MyriadPro-Regular'" font-size="10.378">65</text>
<text transform="matrix(0.9988 -0.0484 0.0484 0.9988 209.7734 249.7637)" fill="#FFFFFF" font-family="'MyriadPro-Regular'" font-size="10.378">64</text>
<text transform="matrix(0.9988 -0.0484 0.0484 0.9988 212.9189 215.0596)" fill="#FFFFFF" font-family="'MyriadPro-Regular'" font-size="10.378">63</text>
<text transform="matrix(0.9988 -0.0484 0.0484 0.9988 193.8701 192.1904)" fill="#FFFFFF" font-family="'MyriadPro-Regular'" font-size="10.378">62</text>
<text transform="matrix(0.9988 -0.0484 0.0484 0.9988 161.5293 166.1338)" fill="#FFFFFF" font-family="'MyriadPro-Regular'" font-size="10.378">61</text>
<text transform="matrix(0.9988 -0.0484 0.0484 0.9988 130.3105 155.3311)" fill="#FFFFFF" font-family="'MyriadPro-Regular'" font-size="10.378">60</text>
<text transform="matrix(0.9988 -0.0484 0.0484 0.9988 108.4375 132.7153)" fill="#FFFFFF" font-family="'MyriadPro-Regular'" font-size="10.378">59</text>
<text transform="matrix(0.9988 -0.0484 0.0484 0.9988 64.6016 151.2305)" fill="#FFFFFF" font-family="'MyriadPro-Regular'" font-size="10.378">58</text>
<text transform="matrix(0.9988 -0.0484 0.0484 0.9988 33.9346 187.8203)" fill="#FFFFFF" font-family="'MyriadPro-Regular'" font-size="10.378">57</text>
<text transform="matrix(0.9988 -0.0484 0.0484 0.9988 19.4482 229.8867)" fill="#FFFFFF" font-family="'MyriadPro-Regular'" font-size="10.378">56</text>
<text transform="matrix(0.9988 -0.0484 0.0484 0.9988 25.3115 276.9668)" fill="#FFFFFF" font-family="'MyriadPro-Regular'" font-size="10.378">55</text>
<text transform="matrix(0.9988 -0.0484 0.0484 0.9988 46.2881 316.2949)" fill="#FFFFFF" font-family="'MyriadPro-Regular'" font-size="10.378">54</text>
<text transform="matrix(0.9988 -0.0484 0.0484 0.9988 82.6592 341.3594)" fill="#FFFFFF" font-family="'MyriadPro-Regular'" font-size="10.378">53</text>
<text transform="matrix(0.9988 -0.0484 0.0484 0.9988 129.1895 350.2412)" fill="#FFFFFF" font-family="'MyriadPro-Regular'" font-size="10.378">52</text>
<text transform="matrix(0.9988 -0.0484 0.0484 0.9988 175.4922 343.0908)" fill="#FFFFFF" font-family="'MyriadPro-Regular'" font-size="10.378">51</text>
<text transform="matrix(0.9988 -0.0484 0.0484 0.9988 210.4932 318.207)" fill="#FFFFFF" font-family="'MyriadPro-Regular'" font-size="10.378">50</text>
<text transform="matrix(0.9988 -0.0484 0.0484 0.9988 234.2031 277.0195)" fill="#FFFFFF" font-family="'MyriadPro-Regular'" font-size="10.378">49</text>
<text transform="matrix(0.9988 -0.0484 0.0484 0.9988 239.5859 229.3623)" fill="#FFFFFF" font-family="'MyriadPro-Regular'" font-size="10.378">48</text>
<text transform="matrix(0.9988 -0.0484 0.0484 0.9988 224.918 188.9014)" fill="#FFFFFF" font-family="'MyriadPro-Regular'" font-size="10.378">47</text>
<text transform="matrix(0.9988 -0.0484 0.0484 0.9988 193.8086 156.2979)" fill="#FFFFFF" font-family="'MyriadPro-Regular'" font-size="10.378">46</text>
<text transform="matrix(0.9988 -0.0484 0.0484 0.9988 152.5742 134.8232)" fill="#FFFFFF" font-family="'MyriadPro-Regular'" font-size="10.378">45</text>
<rect x="-20.5" y="42.5" fill="none" stroke="#000000" stroke-miterlimit="10" width="331" height="75"/>
<text transform="matrix(1 0 0 1 201.7305 137.5625)" font-family="'MyriadPro-Regular'" font-size="12">TOP</text>
<text transform="matrix(1 0 0 1 123.3359 82)" font-family="'MyriadPro-Regular'" font-size="12">10:00 </text>
<text transform="matrix(1 0 0 1 122.8325 36.0566)" font-family="'MyriadPro-Regular'" font-size="6.6856">CAULDRON</text>
<line fill="#FFFFFF" stroke="#000000" stroke-width="3" stroke-miterlimit="10" x1="138.673" y1="11" x2="133.208" y2="16.465"/>
<line fill="#FFFFFF" stroke="#000000" stroke-width="3" stroke-miterlimit="10" x1="144.691" y1="16.465" x2="137.673" y2="9.834"/>
</svg>
