<?xml version="1.0" encoding="utf-8"?>
<!-- Generator: Adobe Illustrator 16.0.0, SVG Export Plug-In . SVG Version: 6.00 Build 0)  -->
<!DOCTYPE svg PUBLIC "-//W3C//DTD SVG 1.1//EN" "http://www.w3.org/Graphics/SVG/1.1/DTD/svg11.dtd">
<svg version="1.1" id="Layer_1" xmlns="http://www.w3.org/2000/svg" xmlns:xlink="http://www.w3.org/1999/xlink" x="0px" y="0px"
	 width="287.5px" height="358.25px" viewBox="0 0 287.5 358.25" enable-background="new 0 0 287.5 358.25" xml:space="preserve">
<rect x="-20.5" y="47.625" fill="none" stroke="#000000" stroke-miterlimit="10" width="331" height="69.875"/>
<g>
	<g>
		<path d="M241.19,186.112l9.586,17.782l1.996,8.307l2.697,39.169l-3.188,12.499l-3.209,9.331l0,0l0,0l-2.252,7.826l-5.085,16.016
			l-7.166,8.688l-21.319,23.134l-5.701,3.824l-31.238,12.959l-19.108,3.653l-25.528,0.525l-23.439-5.666l-24.108-11.252
			l-9.084-7.091l-24.363-29.289l-4.659-10.374l-7.746-22.966l-3.483-13.062l2.198-23.86l3.089,0.325l-2.143,19.623l5.668-4.668
			l9.712-8.537l3.613-3.184l-1.549-1.346l-7.912-10.999l-5.317-7.019l-1.271,10.291l0.032,3.237l-0.87,2.718l0,0l-3.052-0.443
			l1.81-16.021l4.195-11.324l10.91-17.979l10.479-15.299l9.216-7.322l16.585-12.311l11.717-8.249l10.757-2.426l13.146-2.617
			l9.41-2.031l10.359-1.823l15.125,3.085l5.587,1.269l3.456,0.469l4.322,1.632l14.088,3.669l15.033,8.719l24.147,17.387l5.474,6.869
			l6.021,10.559 M192.608,262.046l1.435-12.717l-25.112,10.422l19.594,17.979l1.729-8L192.608,262.046l2.777,0.029l-3.32,16.039
			l26.541-10.186l-20.758-18.439l-2.463,12.586L192.608,262.046L192.608,262.046z M251.117,248.736l0.838-0.635l-1.026-12.425
			l-0.576-11.631l-0.812-13.215l-20.841,19.57L251.117,248.736L251.117,248.736z M64.738,170.773l-20.113,32.119l0.593,0.657
			l7.002-1.092l5.686-2.107l3.384,0.631l11.19-1.213L64.738,170.773L64.738,170.773z M100.294,142.642l-30.443,22.815l16.363,3.106
			l10.545,2.021l2.806,0.672l0.446-16.754L100.294,142.642L100.294,142.642z M170.345,343.403l0.73,0.514l34.781-13.968
			l-25.062-13.563L170.345,343.403L170.345,343.403z M224.767,167.105l-30.361-21.453l-0.889,0.527l3.756,28.419L224.767,167.105
			L224.767,167.105z M155.347,145.248l5.623,10.932l2.098,1.311l10.902-6.806l2.949-1.662l3.549-2.655l6.203-4.388l-36.472-9.25
			l4.263,9.562 M142.397,324.042l-17.822,22.271l37.388-0.615l0.249-1.014L142.397,324.042L142.397,324.042z M50.902,289.818
			l14.101-26.427L38.449,253.32L50.902,289.818L50.902,289.818z M65.172,310.804l6.802,6.152l7.091,8.281l5.136-27.761
			l-29.181-1.491l1.678,2.619l7.202,8.779L65.172,310.804L65.172,310.804z M251.104,256.386L224.271,269.3l6.222,8.819l2.581,3.778
			l2.261,4.619l4.63,6.171L251.104,256.386L251.104,256.386z M83.303,294.165l-15.878-28.199l-14.17,26.506l15.335,0.725l0,0
			l1.954-0.021L83.303,294.165L83.303,294.165z M70.824,181.03l4.984,16.236l21.46-23.249l-14.711-2.569l-14.224-2.515l2.053,10.027
			l0,0L70.824,181.03l-0.022,1.407l-1.604-1.106L70.824,181.03z M166.453,344.216l10.592-27.862l-30.784,6.039l-0.346,0.913
			l11.227,10.89l0.953,1.154L166.453,344.216L166.453,344.216z M223.94,265.684l26.729-13.082l-22.864-18.642l-2.033,15.539
			L223.94,265.684L223.94,265.684z M165.231,160.122l13.844,6.687l14.829,7.271l-4.224-29.78L165.231,160.122L165.231,160.122z
			 M156.421,293.837l-11.128,25.479l11.738-2.268l9.328-1.775l10.056-2.141L156.421,293.837L156.421,293.837z M191.177,177.232
			l-27.558-12.739l4.815,26.737l12.539-8.838L191.177,177.232L191.177,177.232z M220.66,264.716l3.584-31.463l-23.868,13.439
			l10.471,9.292L220.66,264.716L220.66,264.716z M91.785,202.167l13.459,1.604l-0.271-2.954l-5.421-24.322l0,0l-21.637,23.327
			l9.552,1.17 M170.961,192.994l11.867,7.989l13.081,6.831l-1.505-28.021L170.961,192.994L170.961,192.994z M141.89,318.406
			l4.396-9.558l0.996-2.814l2.827-6.02l0,0l2.798-7.172l-28.967,3.324L141.89,318.406L141.89,318.406z M70.874,264.641l4.056,7.431
			l4.626,8.755l6.463,11.183l12.001-24.894L70.874,264.641L70.874,264.641z M100.921,269.003l-11.854,24.94l14.629-0.248l0,0
			l13.963-0.545L100.921,269.003L100.921,269.003z M164.735,190.481l-4.707-26.76l-22.817,17.62l11.487,3.938l6.217,1.882
			L164.735,190.481L164.735,190.481z M187.229,283.38l-28.442,8.326l8.206,6.318l12.014,13.064L187.229,283.38L187.229,283.38z
			 M70.446,261.025l27.547,2.714l-12.109-26.665L70.446,261.025L70.446,261.025z M120.743,191.593l9.912-8.957l-27.766-7.222
			l5.911,27.339l0,0 M77.681,203.296l-0.685,0.864l4.57,8.146l0.586,1.634l4.64,15.907l10.321-11.836l3.432-5.094l4.501-6.043
			L77.681,203.296L77.681,203.296z M222.919,230.159l-21.371-14.546l-2.222-2.21l-0.785,30.287l10.181-5.682l2.991-0.976
			l1.849-1.687L222.919,230.159L222.919,230.159z M89.613,232.019l13.641,1.906l0,0l12.585,1.426l-8.749-26.153L89.613,232.019
			L89.613,232.019z M158.536,287.995l27.682-8.104l-19.328-17.645L158.536,287.995L158.536,287.995z M131.569,267.175l-27.62,0.283
			l16.169,23.67l5.832-10.705l1.162-3.771L131.569,267.175L131.569,267.175z M137.72,290.247l14.326-1.103l-17.595-20.591
			l-10.999,24.215L137.72,290.247 M89.373,235.694l3.783,10.161l2.12,4.92l4.95,10.978l0,0l0.918-0.05l14.352-23.165
			 M187.589,237.568l3.924,2.933l3.715,2.778l0.682-29.024l-22.604,12.728l10.681,8.706 M169.136,196.786L169.136,196.786
			l1.446,19.667l0.502,8.481l2.353-1.383l10.283-5.807l3.549-1.923l6.771-3.744l0.195-0.882 M163.515,194.173l-27.594-9.739
			l5.464,26.264L163.515,194.173L163.515,194.173z M138.02,211.003l-5.192-25.867l-21.436,19.393l11.243,2.186L138.02,211.003
			L138.02,211.003z M167.931,256.407l14.16-5.154l6.375-2.547l5.064-2.652l-22.404-16.116L167.931,256.407L167.931,256.407z
			 M117.973,240.716l-13.722,22.388l0.507,0.737l9.814,0.361l8.346,0.26l7.919-0.9L117.973,240.716L117.973,240.716z
			 M127.875,223.581l9.334-9.176l-26.699-6.434l3.551,13.074l1.145,2.078l3.555,10.211l7.106-7.822L127.875,223.581z
			 M167.865,224.521l-2.308-27.623l-22.167,16.075l11.259,3.996L167.865,224.521L167.865,224.521z M163.37,261.466l-26.336,5.229
			l2.151,2.381l13.108,15.202l3.021,2.477L163.37,261.466L163.37,261.466z M247.677,207.822l-23.179-7.511l0.792,8.312l0.914,6.139
			l0.312,6.046l1.049,6.198L247.677,207.822L247.677,207.822z M112.241,321.691l4.572,10.834l5.106,11.458l12.26-13.01l3.957-7.706
			L112.241,321.691L112.241,321.691z M237.454,295.399L222.22,272.04l-9.804,25.529L237.454,295.399L237.454,295.399z
			 M124.709,154.687l-20.762-12.654l-1.142,9.836l0.296,3.775l-0.646,13.984l9.123-5.814l4.197-1.599L124.709,154.687
			L124.709,154.687z M39.628,249.311l0.077,1.019l25.339,9.434l-7.172-26.25L39.628,249.311L39.628,249.311z M200.548,177.111
			l-0.172,0.95l20.395,16.438l5.658-24.506L200.548,177.111L200.548,177.111z M87.264,299.491l-5.11,27.28l14.998-5.103l0,0
			l8.684-2.927L87.264,299.491L87.264,299.491z M71.236,203.308l-27.29,3.463l14.669,20.212l4.772-8.378l4.218-8.17l1.497,1.766
			l-1.492-1.371L71.236,203.308L71.236,203.308z M208.231,327.317l-0.106-25.09l-24.397,11.912l7.56,3.881l5.332,3.312l5.086,2.623
			L208.231,327.317L208.231,327.317z M246.899,203.714l-17.114-30.397l-0.72,0.109l-5.373,23.345l13.504,2.454l-0.661,1.584
			L246.899,203.714L246.899,203.714z M157.613,158.358l-0.132-1.67l-11.627-24.875l-1.688,4.125l-3.965,5.648l-8.511,12.024
			l7.57,1.53l6.348,0.824L157.613,158.358L157.613,158.358z M107.296,139.687l1.574,1.531l15.59,9.277l2.607,2.309l15.318-20.062
			L107.296,139.687L107.296,139.687z M84.898,329.548l31.877,14.597l0.588-0.533l-8.019-19.239l-3.973-1.64l-9.634,3.11
			L84.898,329.548L84.898,329.548z M211.538,312.529l0.025,13.324l23.893-26.16l-21.352,1.157l-2.291,1.384l2.113,11.176
			L211.538,312.529L211.538,312.529z M218.765,272.28l-0.879-0.479l-25.285,9.674l16.699,15.047L218.765,272.28L218.765,272.28z
			 M130.604,180.615l0.959-1.652l-4.315-21.349l-22.247,14.476L130.604,180.615L130.604,180.615z M61.505,228.968l22.379,2.817
			l-9.542-26.604L61.505,228.968L61.505,228.968z M64.94,247.268l3.035,10.099l0.879,0.075l14.516-22.489l-22.048-2.562
			l2.934,10.446 M111.717,318.239l26.098,1.457l0.242-0.828l-16.78-20.875L111.717,318.239L111.717,318.239z M151.29,165.698
			l4.836-4.016l-3.867-0.967l-8.987-1.404l-10.265-1.75l-3.1-1.443l1.992,9.753l2.554,9.871l0.515,3.379l9.68-7.531l4.142-3.57
			L151.29,165.698z M219.041,197.525l-20.704-16.599l-0.748,0.509l1.201,10.886l0.452,15.898l7.334-3.652l5.597-3.512
			L219.041,197.525L219.041,197.525z M190.785,284.382l-1.862-0.07l-5.375,26.097l11.277-5.685l1.126-0.686l11.224-4.891
			L190.785,284.382L190.785,284.382z M108.697,317.242l9.275-20.807l-28.131,0.97l7.885,6.736L108.697,317.242L108.697,317.242z
			 M223.89,226.204l-3.342-25.748l-19.627,11.051l9.635,6.217l5.362,3.435L223.89,226.204L223.89,226.204z M143.864,223.503
			l0.331,2.619l2.233,11.967l2.731-1.025l14.577-8.508l2.017-1.696l-22.742-10.472l-0.111,3.41L143.864,223.503z M140.041,248.439
			l3.056-6.685l-21.594-2.433l12.473,22.146l0,0l5.122-10.5 M148.626,240.843l16.158,14.851l2.9-25.582L148.626,240.843
			L148.626,240.843z M139.385,217.856l-0.899-0.254l-16.925,18.443l21.964,2.47L139.385,217.856L139.385,217.856z M151.695,261.085
			l10.432-3.186l-15.983-14.652l-8.98,19.992l10.173-1.949l3.687-0.394 M170.786,226.825L170.786,226.825"/>
		<polygon fill="#FFFFFF" points="251.117,248.736 228.7,230.402 249.541,210.831 250.351,224.046 250.929,235.677 251.955,248.102 
					"/>
		<polygon fill="#FFFFFF" points="224.767,167.105 197.272,174.599 193.517,146.179 194.405,145.652 		"/>
		<polyline fill="#FFFFFF" points="230.492,278.12 224.271,269.3 251.104,256.386 251.104,256.386 239.964,292.688 235.334,286.518 
					"/>
		<polygon fill="#FFFFFF" points="223.94,265.684 225.772,249.499 227.806,233.96 250.671,252.602 		"/>
		<polygon fill="#FFFFFF" points="194.824,263.589 195.388,262.075 197.849,249.489 218.606,267.929 192.065,278.114 
			194.824,263.589 194.824,263.589 195.388,262.075 		"/>
		<polygon fill="#FFFFFF" points="163.515,194.173 141.386,210.697 135.922,184.434 		"/>
		<polygon fill="#FFFFFF" points="237.454,295.399 212.416,297.569 222.22,272.04 		"/>
		<polygon fill="#FFFFFF" points="124.709,154.687 117.075,161.119 111.579,163.813 102.456,169.628 103.101,155.644 
			102.943,150.668 103.947,142.032 		"/>
		<polygon fill="#FFFFFF" points="39.628,249.311 57.872,233.513 65.044,259.761 39.704,250.329 		"/>
		<polygon fill="#FFFFFF" points="200.548,177.111 226.429,169.994 220.771,194.501 200.376,178.062 		"/>
		<polyline fill="#FFFFFF" points="63.388,218.604 58.616,226.982 43.946,206.771 71.236,203.308 71.236,203.308 67.61,210.829 		
			"/>
		<polygon fill="#FFFFFF" points="246.899,203.714 241.824,202.292 236.535,200.809 223.692,196.771 229.065,173.425 
			229.785,173.316 		"/>
		<polygon fill="#FFFFFF" points="40.042,226.71 40.912,223.991 40.88,220.753 42.151,210.464 47.468,217.48 55.38,228.479 
			54.873,231.749 47.53,237.696 47.19,238.593 37.936,246.214 40.079,226.591 		"/>
		<polygon fill="#FFFFFF" points="211.538,312.529 212.011,306.029 211.813,302.234 214.104,300.851 235.456,299.693 
			211.563,325.854 		"/>
		<polygon fill="#FFFFFF" points="218.765,272.28 209.3,296.522 192.601,281.476 217.888,271.802 		"/>
		<polygon fill="#FFFFFF" points="130.604,180.615 105.001,172.09 127.248,157.614 132.567,180.471 		"/>
		<polygon fill="#FFFFFF" points="61.505,228.968 74.342,205.183 83.884,231.786 		"/>
		<polygon fill="#FFFFFF" points="111.717,318.239 121.276,297.993 138.057,318.868 137.814,319.696 		"/>
	</g>
	<circle fill="#E05619" cx="145.548" cy="239.543" r="6.561"/>
	<circle fill="#E05619" cx="140.658" cy="214.465" r="6.561"/>
	<circle fill="#E05619" cx="117.654" cy="236.16" r="6.56"/>
	<circle fill="#E05619" cx="133.958" cy="265.114" r="6.561"/>
	<circle fill="#E05619" cx="165.683" cy="258.908" r="6.562"/>
	<circle fill="#E05619" cx="170.144" cy="228.224" r="6.561"/>
	<circle fill="#E05619" cx="167.488" cy="194.462" r="6.561"/>
	<circle fill="#E05619" cx="133.468" cy="182.285" r="6.56"/>
	<circle fill="#E05619" cx="109.322" cy="204.542" r="6.56"/>
	<circle fill="#E05619" cx="87.296" cy="234.014" r="6.56"/>
	<circle fill="#E05619" cx="102.257" cy="264.995" r="6.561"/>
	<circle fill="#E05619" cx="121.517" cy="294.785" r="6.56"/>
	<circle fill="#E05619" cx="155.685" cy="290.33" r="6.56"/>
	<circle fill="#E05619" cx="188.527" cy="280.067" r="6.561"/>
	<circle fill="#E05619" cx="196.794" cy="246.507" r="6.561"/>
	<circle fill="#E05619" cx="197.529" cy="211.125" r="6.56"/>
	<circle fill="#E05619" cx="197.272" cy="177.695" r="6.56"/>
	<circle fill="#E05619" cx="160.843" cy="159.343" r="6.56"/>
	<circle fill="#E05619" cx="128.798" cy="154.796" r="6.56"/>
	<circle fill="#E05619" cx="100.399" cy="172.733" r="6.56"/>
	<circle fill="#E05619" cx="74.519" cy="202.364" r="6.561"/>
	<circle fill="#E05619" cx="59.924" cy="231.228" r="6.561"/>
	<path fill="#E05619" d="M73.389,258.866c1.775,3.154,0.658,7.154-2.499,8.932c-3.158,1.779-7.157,0.66-8.935-2.492
		c-1.777-3.158-0.66-7.158,2.498-8.938C67.61,254.591,71.61,255.708,73.389,258.866z"/>
	<circle fill="#E05619" cx="86.69" cy="295.86" r="6.561"/>
	<circle fill="#E05619" cx="108.274" cy="320.822" r="6.562"/>
	<circle fill="#E05619" cx="143.38" cy="320.246" r="6.56"/>
	<circle fill="#E05619" cx="179.538" cy="313.28" r="6.561"/>
	<path fill="#E05619" d="M215.731,295.815c1.775,3.154,0.66,7.154-2.5,8.936c-3.155,1.776-7.155,0.657-8.932-2.496
		c-1.777-3.156-0.66-7.158,2.495-8.934C209.956,291.542,213.956,292.659,215.731,295.815z"/>
	<path fill="#E05619" d="M226.382,265.979c1.776,3.156,0.658,7.156-2.5,8.936c-3.156,1.777-7.156,0.658-8.935-2.498
		c-1.774-3.154-0.658-7.154,2.498-8.932C220.604,261.708,224.604,262.825,226.382,265.979z"/>
	<path fill="#E05619" d="M231.222,227.122c1.775,3.156,0.658,7.155-2.5,8.937c-3.156,1.774-7.156,0.657-8.934-2.499
		c-1.775-3.154-0.658-7.153,2.497-8.932C225.445,222.85,229.444,223.966,231.222,227.122z"/>
	<path fill="#E05619" d="M227.339,193.486c1.777,3.156,0.66,7.156-2.498,8.937c-3.158,1.775-7.158,0.658-8.934-2.498
		c-1.777-3.154-0.66-7.153,2.496-8.933C221.563,189.214,225.563,190.331,227.339,193.486z"/>
	<circle fill="#E05619" cx="228.54" cy="168.875" r="6.561"/>
	<path fill="#E05619" d="M196.731,139.133c1.777,3.155,0.658,7.154-2.502,8.934c-3.155,1.778-7.154,0.659-8.932-2.496
		c-1.775-3.155-0.658-7.155,2.497-8.931C190.956,134.859,194.955,135.979,196.731,139.133z"/>
	<path fill="#E05619" d="M151.931,126.716c1.775,3.155,0.658,7.155-2.5,8.935c-3.158,1.777-7.156,0.659-8.935-2.497
		c-1.776-3.155-0.659-7.156,2.497-8.933C146.153,122.442,150.153,123.561,151.931,126.716z"/>
	<path fill="#E05619" d="M107.725,134.483c1.775,3.155,0.657,7.156-2.502,8.934c-3.154,1.777-7.155,0.658-8.931-2.496
		c-1.777-3.157-0.66-7.156,2.495-8.933C101.948,130.209,105.947,131.327,107.725,134.483z"/>
	<circle fill="#E05619" cx="63.068" cy="164.244" r="6.561"/>
	<path fill="#E05619" d="M46.826,202.899c1.777,3.154,0.659,7.154-2.501,8.936c-3.155,1.774-7.156,0.657-8.932-2.498
		c-1.778-3.156-0.658-7.154,2.497-8.933C41.05,198.626,45.048,199.743,46.826,202.899z"/>
	<circle fill="#E05619" cx="34.845" cy="250.936" r="6.56"/>
	<circle fill="#E05619" cx="51.067" cy="295.274" r="6.561"/>
	<circle fill="#E05619" cx="79.92" cy="329.261" r="6.56"/>
	<path fill="#E05619" d="M125.926,343.472c1.775,3.154,0.658,7.152-2.503,8.934c-3.155,1.777-7.155,0.659-8.931-2.495
		c-1.776-3.155-0.659-7.155,2.497-8.931C120.149,339.199,124.148,340.317,125.926,343.472z"/>
	<path fill="#E05619" d="M173.333,343.119c1.776,3.153,0.657,7.152-2.502,8.933c-3.156,1.777-7.156,0.658-8.932-2.494
		c-1.776-3.154-0.658-7.154,2.498-8.932C167.558,338.845,171.558,339.964,173.333,343.119z"/>
	
		<ellipse transform="matrix(-0.4907 -0.8714 0.8714 -0.4907 27.7891 674.9355)" fill="#E05619" cx="211.161" cy="329.346" rx="6.555" ry="6.561"/>
	
		<ellipse transform="matrix(-0.4907 -0.8714 0.8714 -0.4907 98.7543 653.4351)" fill="#E05619" cx="240.357" cy="297.854" rx="6.554" ry="6.562"/>
	<circle fill="#E05619" cx="254.369" cy="252.354" r="6.561"/>
	<path fill="#E05619" d="M256.287,202.699c1.774,3.152,0.656,7.153-2.504,8.933c-3.154,1.776-7.155,0.658-8.931-2.494
		c-1.776-3.156-0.657-7.156,2.496-8.932C250.509,198.425,254.511,199.544,256.287,202.699z"/>
	
		<text transform="matrix(0.9498 -0.3128 0.3128 0.9498 116.5723 240.3711)" fill="#FFFFFF" font-family="'MyriadPro-Regular'" font-size="10.378">2</text>
	
		<text transform="matrix(0.9555 -0.295 0.295 0.9555 133.3447 269.7744)" fill="#FFFFFF" font-family="'MyriadPro-Regular'" font-size="10.378">1</text>
	
		<text transform="matrix(0.9859 -0.1672 0.1672 0.9859 161.0361 263.4355)" fill="#FFFFFF" font-family="'MyriadPro-Regular'" font-size="10.378"> 0</text>
	
		<text transform="matrix(0.9495 -0.3137 0.3137 0.9495 169.541 231.9668)" fill="#FFFFFF" font-family="'MyriadPro-Regular'" font-size="10.378">4</text>
	
		<text transform="matrix(0.9669 -0.2553 0.2553 0.9669 139.2129 218.5605)" fill="#FFFFFF" font-family="'MyriadPro-Regular'" font-size="10.3784">3</text>
	
		<text transform="matrix(0.9669 -0.2553 0.2553 0.9669 105.4268 208.9453)" fill="#FFFFFF" font-family="'MyriadPro-Regular'" font-size="10.3784">12</text>
	
		<text transform="matrix(0.9669 -0.2553 0.2553 0.9669 83.7881 238.0859)" fill="#FFFFFF" font-family="'MyriadPro-Regular'" font-size="10.3784">11</text>
	
		<text transform="matrix(0.9669 -0.2553 0.2553 0.9669 98.2861 270.0811)" fill="#FFFFFF" font-family="'MyriadPro-Regular'" font-size="10.3784">10</text>
	
		<text transform="matrix(0.9669 -0.2553 0.2553 0.9669 120.7593 298.876)" fill="#FFFFFF" font-family="'MyriadPro-Regular'" font-size="10.3784">9</text>
	
		<text transform="matrix(0.9669 -0.2553 0.2553 0.9669 151.6602 294.7764)" fill="#FFFFFF" font-family="'MyriadPro-Regular'" font-size="10.3784"> 8</text>
	
		<text transform="matrix(0.9669 -0.2553 0.2553 0.9669 185.9141 284.2324)" fill="#FFFFFF" font-family="'MyriadPro-Regular'" font-size="10.3784"> 7</text>
	
		<text transform="matrix(0.9669 -0.2553 0.2553 0.9669 195.3564 250.1631)" fill="#FFFFFF" font-family="'MyriadPro-Regular'" font-size="10.3784">6</text>
	
		<text transform="matrix(0.9669 -0.2553 0.2553 0.9669 196.5166 215.9688)" fill="#FFFFFF" font-family="'MyriadPro-Regular'" font-size="10.3784">5</text>
	
		<text transform="matrix(0.9669 -0.2553 0.2553 0.9669 163.0547 199.082)" fill="#FFFFFF" font-family="'MyriadPro-Regular'" font-size="10.3784">14</text>
	
		<text transform="matrix(0.9669 -0.2553 0.2553 0.9669 129.0352 186.9053)" fill="#FFFFFF" font-family="'MyriadPro-Regular'" font-size="10.3784">13</text>
	
		<text transform="matrix(0.9669 -0.2553 0.2553 0.9669 96.6338 177.5337)" fill="#FFFFFF" font-family="'MyriadPro-Regular'" font-size="10.3784">27</text>
	
		<text transform="matrix(0.9669 -0.2553 0.2553 0.9669 69.5527 206.4043)" fill="#FFFFFF" font-family="'MyriadPro-Regular'" font-size="10.3784">26</text>
	
		<text transform="matrix(0.9669 -0.2553 0.2553 0.9669 55.1572 235.7832)" fill="#FFFFFF" font-family="'MyriadPro-Regular'" font-size="10.3784">25</text>
	
		<text transform="matrix(0.9669 -0.2553 0.2553 0.9669 62.9058 266.6406)" fill="#FFFFFF" font-family="'MyriadPro-Regular'" font-size="10.3784">24</text>
	
		<text transform="matrix(0.9669 -0.2553 0.2553 0.9669 82.8877 300.1484)" fill="#FFFFFF" font-family="'MyriadPro-Regular'" font-size="10.3784">23</text>
	
		<text transform="matrix(0.9669 -0.2553 0.2553 0.9669 104.7715 325.2422)" fill="#FFFFFF" font-family="'MyriadPro-Regular'" font-size="10.3784">22</text>
	
		<text transform="matrix(0.9669 -0.2553 0.2553 0.9669 139.6045 324.417)" fill="#FFFFFF" font-family="'MyriadPro-Regular'" font-size="10.3784">21</text>
	
		<text transform="matrix(0.9669 -0.2553 0.2553 0.9669 175.3867 318.1289)" fill="#FFFFFF" font-family="'MyriadPro-Regular'" font-size="10.3784">20</text>
	
		<text transform="matrix(0.9669 -0.2553 0.2553 0.9669 205.6846 303.2969)" fill="#FFFFFF" font-family="'MyriadPro-Regular'" font-size="10.3784">19</text>
	
		<text transform="matrix(0.9669 -0.2553 0.2553 0.9669 216.333 273.4619)" fill="#FFFFFF" font-family="'MyriadPro-Regular'" font-size="10.3784">18</text>
	
		<text transform="matrix(0.9669 -0.2553 0.2553 0.9669 221.6699 235.2949)" fill="#FFFFFF" font-family="'MyriadPro-Regular'" font-size="10.3784">17</text>
	
		<text transform="matrix(0.9669 -0.2553 0.2553 0.9669 217.5205 200.6953)" fill="#FFFFFF" font-family="'MyriadPro-Regular'" font-size="10.3784">16</text>
	
		<text transform="matrix(0.9669 -0.2553 0.2553 0.9669 194.127 182.2949)" fill="#FFFFFF" font-family="'MyriadPro-Regular'" font-size="10.3784">15</text>
	
		<text transform="matrix(0.9669 -0.2553 0.2553 0.9669 157.0693 163.5444)" fill="#FFFFFF" font-family="'MyriadPro-Regular'" font-size="10.3784">29</text>
	
		<text transform="matrix(0.9669 -0.2553 0.2553 0.9669 124.2852 159.48)" fill="#FFFFFF" font-family="'MyriadPro-Regular'" font-size="10.3784">28</text>
	
		<text transform="matrix(0.9669 -0.2553 0.2553 0.9669 98.1831 141.9126)" fill="#FFFFFF" font-family="'MyriadPro-Regular'" font-size="10.3784">43</text>
	
		<text transform="matrix(0.9669 -0.2553 0.2553 0.9669 59.1631 169.1504)" fill="#FFFFFF" font-family="'MyriadPro-Regular'" font-size="10.3784">42</text>
	
		<text transform="matrix(0.9669 -0.2553 0.2553 0.9669 36.7871 211.3242)" fill="#FFFFFF" font-family="'MyriadPro-Regular'" font-size="10.3784">41</text>
	
		<text transform="matrix(0.9669 -0.2553 0.2553 0.9669 31.3779 255.4844)" fill="#FFFFFF" font-family="'MyriadPro-Regular'" font-size="10.3784">40</text>
	
		<text transform="matrix(0.9669 -0.2553 0.2553 0.9669 46.915 300.3115)" fill="#FFFFFF" font-family="'MyriadPro-Regular'" font-size="10.3784">39</text>
	
		<text transform="matrix(0.9669 -0.2553 0.2553 0.9669 75.6211 334.4102)" fill="#FFFFFF" font-family="'MyriadPro-Regular'" font-size="10.3784">38</text>
	
		<text transform="matrix(0.9669 -0.2553 0.2553 0.9669 116.4141 351.3516)" fill="#FFFFFF" font-family="'MyriadPro-Regular'" font-size="10.3784">37</text>
	
		<text transform="matrix(0.9669 -0.2553 0.2553 0.9669 163.7744 350.3496)" fill="#FFFFFF" font-family="'MyriadPro-Regular'" font-size="10.3784">36</text>
	
		<text transform="matrix(0.9669 -0.2553 0.2553 0.9669 207.5732 333.7148)" fill="#FFFFFF" font-family="'MyriadPro-Regular'" font-size="10.3784">35</text>
	
		<text transform="matrix(0.9669 -0.2553 0.2553 0.9669 236.626 302.0889)" fill="#FFFFFF" font-family="'MyriadPro-Regular'" font-size="10.3784">34</text>
	
		<text transform="matrix(0.9669 -0.2553 0.2553 0.9669 251.2393 256.8652)" fill="#FFFFFF" font-family="'MyriadPro-Regular'" font-size="10.3784">339</text>
	
		<text transform="matrix(0.9669 -0.2553 0.2553 0.9669 246.5811 209.1348)" fill="#FFFFFF" font-family="'MyriadPro-Regular'" font-size="10.3784">32</text>
	
		<text transform="matrix(0.9669 -0.2553 0.2553 0.9669 223.8086 172.6133)" fill="#FFFFFF" font-family="'MyriadPro-Regular'" font-size="10.3784">31</text>
	
		<text transform="matrix(0.9669 -0.2553 0.2553 0.9669 186.5928 147.2026)" fill="#FFFFFF" font-family="'MyriadPro-Regular'" font-size="10.3784">30</text>
	
		<text transform="matrix(0.9669 -0.2553 0.2553 0.9669 141.7915 134.7837)" fill="#FFFFFF" font-family="'MyriadPro-Regular'" font-size="10.3784">44</text>
</g>
<text transform="matrix(1 0 0 1 124.8877 83.2275)" font-family="'NeutraText-Book'" font-size="13">10:00 </text>
<text transform="matrix(1 0 0 1 241.7588 83.2275)" font-family="'NeutraText-Book'" font-size="8">GDP </text>
<polygon fill="none" stroke="#000000" stroke-miterlimit="10" points="235.958,56.553 278.303,81 235.958,105.448 "/>
<polygon fill="none" stroke="#000000" stroke-miterlimit="10" points="115.241,38.473 139.688,-3.872 164.136,38.473 "/>
</svg>
