<?xml version="1.0" encoding="utf-8"?>
<!-- Generator: Adobe Illustrator 16.0.0, SVG Export Plug-In . SVG Version: 6.00 Build 0)  -->
<!DOCTYPE svg PUBLIC "-//W3C//DTD SVG 1.1//EN" "http://www.w3.org/Graphics/SVG/1.1/DTD/svg11.dtd">
<svg version="1.1" id="Layer_1" xmlns="http://www.w3.org/2000/svg" xmlns:xlink="http://www.w3.org/1999/xlink" x="0px" y="0px"
	 width="287.5px" height="358.25px" viewBox="0 0 287.5 358.25" enable-background="new 0 0 287.5 358.25" xml:space="preserve">
<rect x="-20.5" y="42.5" fill-rule="evenodd" clip-rule="evenodd" fill="none" stroke="#000000" stroke-miterlimit="10" width="331" height="75"/>
<g>
	<g>
		<path fill-rule="evenodd" clip-rule="evenodd" d="M230.03,184.545l9.585,17.782l1.996,8.307l2.697,39.169l-3.187,12.499
			l-3.209,9.331l0,0l0,0l-2.252,7.826l-5.085,16.016l-7.166,8.687l-21.319,23.134l-5.701,3.824l-31.239,12.959l-19.108,3.653
			l-25.528,0.526l-23.439-5.666L72.967,331.34l-9.084-7.091L39.52,294.96l-4.659-10.374l-7.746-22.966l-3.483-13.062l2.198-23.86
			l3.089,0.326l-2.143,19.623l5.668-4.668l9.712-8.537l3.613-3.184l-1.549-1.346l-7.912-10.999l-5.317-7.018l-1.271,10.29
			l0.032,3.238l-0.87,2.718l0,0l-3.052-0.444l1.81-16.021l4.195-11.325l10.91-17.978l10.479-15.299l9.216-7.322l16.585-12.311
			l11.717-8.249l10.757-2.426l13.146-2.617l9.41-2.031l10.359-1.823l15.125,3.085l5.587,1.269l3.456,0.469l4.322,1.632l14.088,3.669
			l15.034,8.719l24.147,17.387l5.474,6.869l6.021,10.559 M181.447,260.479l1.435-12.717l-25.113,10.421l19.595,17.98l1.729-8
			L181.447,260.479l2.778,0.029l-3.32,16.039l26.541-10.185l-20.759-18.44l-2.462,12.586L181.447,260.479L181.447,260.479z
			 M239.956,247.169l0.838-0.635l-1.027-12.425l-0.576-11.63l-0.811-13.216l-20.841,19.571L239.956,247.169L239.956,247.169z
			 M53.577,169.206l-20.113,32.119l0.593,0.658l7.002-1.092l5.686-2.108l3.384,0.631l11.19-1.213L53.577,169.206L53.577,169.206z
			 M89.133,141.074L58.69,163.889l16.363,3.106l10.545,2.021l2.806,0.672l0.446-16.754L89.133,141.074L89.133,141.074z
			 M159.184,341.836l0.73,0.513l34.781-13.967l-25.062-13.563L159.184,341.836L159.184,341.836z M213.606,165.538l-30.362-21.453
			l-0.889,0.527l3.757,28.419L213.606,165.538L213.606,165.538z M144.186,143.68l5.622,10.932l2.098,1.311l10.903-6.806l2.949-1.662
			l3.549-2.655l6.203-4.388l-36.472-9.25l4.263,9.562 M131.236,322.475l-17.822,22.27l37.388-0.615l0.249-1.014L131.236,322.475
			L131.236,322.475z M39.741,288.251l14.101-26.427l-26.554-10.071L39.741,288.251L39.741,288.251z M54.011,309.236l6.802,6.152
			l7.091,8.282l5.136-27.761l-29.181-1.491l1.678,2.619l7.202,8.78L54.011,309.236L54.011,309.236z M239.944,254.818l-26.834,12.914
			l6.221,8.82l2.581,3.778l2.261,4.619l4.63,6.171L239.944,254.818L239.944,254.818z M72.142,292.597l-15.878-28.198l-14.17,26.506
			l15.335,0.724l0,0l1.954-0.021L72.142,292.597L72.142,292.597z M59.663,179.463l4.984,16.236l21.46-23.249l-14.711-2.569
			l-14.224-2.515l2.053,10.028l0,0L59.663,179.463l-0.022,1.407l-1.604-1.107L59.663,179.463z M155.292,342.649l10.592-27.863
			l-30.784,6.039l-0.346,0.914l11.227,10.889l0.953,1.154L155.292,342.649L155.292,342.649z M212.78,264.116l26.729-13.082
			l-22.865-18.642l-2.032,15.539L212.78,264.116L212.78,264.116z M154.07,158.554l13.844,6.687l14.829,7.271l-4.223-29.779
			L154.07,158.554L154.07,158.554z M145.26,292.27l-11.128,25.478l11.738-2.267l9.328-1.776l10.056-2.141L145.26,292.27
			L145.26,292.27z M180.016,175.665l-27.558-12.739l4.816,26.737l12.538-8.838L180.016,175.665L180.016,175.665z M209.499,263.148
			l3.584-31.462l-23.868,13.439l10.47,9.292L209.499,263.148L209.499,263.148z M80.624,200.599l13.459,1.604l-0.271-2.954
			l-5.421-24.322l0,0l-21.637,23.327l9.552,1.17 M159.8,191.427l11.867,7.989l13.081,6.831l-1.505-28.021L159.8,191.427
			L159.8,191.427z M130.729,316.839l4.396-9.558l0.996-2.814l2.827-6.019l0,0l2.798-7.173l-28.967,3.324L130.729,316.839
			L130.729,316.839z M59.713,263.073l4.056,7.431l4.626,8.755l6.463,11.182l12.001-24.893L59.713,263.073L59.713,263.073z
			 M89.76,267.435l-11.854,24.941l14.629-0.248l0,0l13.963-0.545L89.76,267.435L89.76,267.435z M153.574,188.914l-4.707-26.76
			l-22.817,17.619l11.487,3.938l6.217,1.882L153.574,188.914L153.574,188.914z M176.069,281.813l-28.443,8.326l8.206,6.318
			l12.014,13.064L176.069,281.813L176.069,281.813z M59.285,259.458l27.547,2.714l-12.109-26.665L59.285,259.458L59.285,259.458z
			 M109.582,190.025l9.912-8.956l-27.766-7.222l5.911,27.338l0,0 M66.52,201.729l-0.685,0.864l4.57,8.146l0.586,1.633l4.64,15.908
			l10.321-11.837l3.432-5.094l4.501-6.042L66.52,201.729L66.52,201.729z M211.758,228.592l-21.372-14.546l-2.221-2.21l-0.785,30.287
			l10.181-5.681l2.991-0.976l1.849-1.686L211.758,228.592L211.758,228.592z M78.452,230.451l13.641,1.906l0,0l12.585,1.426
			l-8.749-26.153L78.452,230.451L78.452,230.451z M147.375,286.428l27.682-8.104l-19.329-17.644L147.375,286.428L147.375,286.428z
			 M120.408,265.608l-27.62,0.283l16.169,23.669l5.832-10.705l1.162-3.771L120.408,265.608L120.408,265.608z M126.559,288.68
			l14.326-1.103l-17.595-20.59l-10.999,24.214L126.559,288.68 M78.212,234.127l3.783,10.161l2.12,4.92l4.95,10.977l0,0l0.918-0.049
			l14.352-23.166 M176.428,236.001l3.923,2.933l3.716,2.778l0.681-29.025l-22.603,12.728l10.68,8.706 M157.974,195.219
			L157.974,195.219l1.447,19.667l0.502,8.481l2.353-1.382l10.283-5.807l3.549-1.923l6.77-3.744l0.195-0.882 M152.354,192.606
			l-27.594-9.74l5.464,26.264L152.354,192.606L152.354,192.606z M126.859,209.436l-5.192-25.867l-21.436,19.392l11.243,2.186
			L126.859,209.436L126.859,209.436z M156.769,254.84l14.16-5.155l6.376-2.547l5.064-2.651l-22.404-16.117L156.769,254.84
			L156.769,254.84z M106.812,239.149l-13.722,22.387l0.507,0.737l9.814,0.362l8.346,0.259l7.919-0.9L106.812,239.149
			L106.812,239.149z M116.714,222.013l9.334-9.175l-26.699-6.434l3.551,13.074l1.145,2.078l3.555,10.211l7.106-7.822
			L116.714,222.013z M156.704,222.954l-2.307-27.623l-22.168,16.075l11.259,3.996L156.704,222.954L156.704,222.954z
			 M152.209,259.899l-26.336,5.229l2.151,2.381l13.108,15.202l3.02,2.477L152.209,259.899L152.209,259.899z M236.516,206.255
			l-23.179-7.511l0.792,8.312l0.914,6.14l0.313,6.045l1.049,6.198L236.516,206.255L236.516,206.255z M101.08,320.124l4.572,10.834
			l5.106,11.458l12.26-13.01l3.957-7.706L101.08,320.124L101.08,320.124z M226.293,293.832l-15.235-23.36l-9.803,25.53
			L226.293,293.832L226.293,293.832z M113.548,153.119l-20.762-12.654l-1.142,9.836l0.296,3.775l-0.646,13.984l9.123-5.814
			l4.197-1.599L113.548,153.119L113.548,153.119z M28.467,247.743l0.077,1.019l25.339,9.433l-7.172-26.249L28.467,247.743
			L28.467,247.743z M189.386,175.544l-0.171,0.95l20.395,16.438l5.658-24.506L189.386,175.544L189.386,175.544z M76.103,297.924
			l-5.11,27.28l14.998-5.102l0,0l8.684-2.927L76.103,297.924L76.103,297.924z M60.075,201.74l-27.29,3.463l14.669,20.212
			l4.772-8.378l4.218-8.17l1.497,1.766l-1.492-1.372L60.075,201.74L60.075,201.74z M197.07,325.75l-0.106-25.09l-24.397,11.912
			l7.559,3.881l5.332,3.312l5.086,2.624L197.07,325.75L197.07,325.75z M235.739,202.146l-17.115-30.397l-0.72,0.109l-5.373,23.345
			l13.504,2.454l-0.661,1.584L235.739,202.146L235.739,202.146z M146.452,156.791l-0.131-1.67l-11.627-24.875l-1.688,4.125
			l-3.965,5.648l-8.511,12.024l7.57,1.53l6.348,0.824L146.452,156.791L146.452,156.791z M96.135,138.119l1.574,1.531l15.59,9.277
			l2.607,2.309l15.318-20.062L96.135,138.119L96.135,138.119z M73.737,327.981l31.877,14.596l0.588-0.533l-8.019-19.239l-3.973-1.64
			l-9.634,3.11L73.737,327.981L73.737,327.981z M200.377,310.962l0.025,13.324l23.893-26.16l-21.352,1.157l-2.291,1.384
			l2.113,11.176L200.377,310.962L200.377,310.962z M207.604,270.713l-0.879-0.479l-25.286,9.674l16.699,15.047L207.604,270.713
			L207.604,270.713z M119.443,179.048l0.959-1.653l-4.315-21.348L93.84,170.523L119.443,179.048L119.443,179.048z M50.344,227.4
			l22.379,2.818l-9.542-26.604L50.344,227.4L50.344,227.4z M53.779,245.7l3.035,10.099l0.879,0.075l14.516-22.489l-22.048-2.562
			l2.934,10.447 M100.556,316.672l26.098,1.457l0.242-0.828l-16.78-20.875L100.556,316.672L100.556,316.672z M140.129,164.131
			l4.836-4.016l-3.867-0.967l-8.987-1.404l-10.266-1.75l-3.1-1.443l1.992,9.753l2.554,9.871l0.515,3.379l9.681-7.531l4.141-3.57
			L140.129,164.131z M207.88,195.958l-20.704-16.599l-0.748,0.509l1.201,10.886l0.452,15.899l7.334-3.653l5.596-3.511
			L207.88,195.958L207.88,195.958z M179.624,282.814l-1.862-0.07l-5.375,26.097l11.277-5.685l1.126-0.685l11.224-4.891
			L179.624,282.814L179.624,282.814z M97.536,315.675l9.275-20.807l-28.131,0.97l7.885,6.736L97.536,315.675L97.536,315.675z
			 M212.729,224.636l-3.343-25.747L189.76,209.94l9.635,6.216l5.362,3.435L212.729,224.636L212.729,224.636z M132.703,221.936
			l0.331,2.618l2.234,11.968l2.731-1.026l14.577-8.507l2.017-1.697l-22.742-10.471l-0.111,3.409L132.703,221.936z M128.88,246.872
			l3.056-6.684l-21.594-2.433l12.473,22.146l0,0l5.122-10.501 M137.465,239.276l16.158,14.85l2.901-25.582L137.465,239.276
			L137.465,239.276z M128.224,216.289l-0.899-0.254l-16.925,18.443l21.964,2.47L128.224,216.289L128.224,216.289z M140.534,259.518
			l10.432-3.186l-15.983-14.653l-8.981,19.993l10.173-1.95l3.687-0.393 M159.625,225.258L159.625,225.258"/>
		<polygon fill-rule="evenodd" clip-rule="evenodd" fill="#FFFFFF" points="239.956,247.169 217.539,228.835 238.38,209.264 
			239.19,222.479 239.767,234.109 240.794,246.534 239.956,247.169 		"/>
		<polygon fill-rule="evenodd" clip-rule="evenodd" fill="#FFFFFF" points="213.606,165.538 186.112,173.031 182.355,144.612 
			183.244,144.085 213.606,165.538 		"/>
		<polyline fill-rule="evenodd" clip-rule="evenodd" fill="#FFFFFF" points="219.331,276.553 213.11,267.732 239.944,254.818 
			239.944,254.818 228.803,291.121 224.173,284.95 		"/>
		<polygon fill-rule="evenodd" clip-rule="evenodd" fill="#FFFFFF" points="212.78,264.116 214.612,247.932 216.645,232.393 
			239.51,251.034 212.78,264.116 		"/>
		<polygon fill-rule="evenodd" clip-rule="evenodd" fill="#FFFFFF" points="183.663,262.021 184.226,260.508 186.688,247.922 
			207.446,266.362 180.905,276.547 183.663,262.021 183.663,262.021 184.226,260.508 		"/>
		<polygon fill-rule="evenodd" clip-rule="evenodd" fill="#FFFFFF" points="152.354,192.606 130.225,209.13 124.761,182.866 
			152.354,192.606 		"/>
		<polygon fill-rule="evenodd" clip-rule="evenodd" fill="#FFFFFF" points="226.293,293.832 201.255,296.002 211.058,270.472 
			226.293,293.832 		"/>
		<polygon fill-rule="evenodd" clip-rule="evenodd" fill="#FFFFFF" points="113.548,153.119 105.914,159.552 100.418,162.246 
			91.295,168.061 91.94,154.076 91.782,149.101 92.786,140.465 113.548,153.119 		"/>
		<polygon fill-rule="evenodd" clip-rule="evenodd" fill="#FFFFFF" points="28.467,247.743 46.711,231.945 53.883,258.194 
			28.543,248.762 28.467,247.743 		"/>
		<polygon fill-rule="evenodd" clip-rule="evenodd" fill="#FFFFFF" points="189.386,175.544 215.268,168.427 209.609,192.933 
			189.215,176.494 189.386,175.544 		"/>
		<polyline fill-rule="evenodd" clip-rule="evenodd" fill="#FFFFFF" points="52.227,217.037 47.455,225.415 32.785,205.203 
			60.075,201.74 60.075,201.74 56.449,209.261 		"/>
		<polygon fill-rule="evenodd" clip-rule="evenodd" fill="#FFFFFF" points="235.739,202.146 230.663,200.724 225.374,199.241 
			212.531,195.203 217.904,171.858 218.624,171.749 235.739,202.146 		"/>
		<polygon fill-rule="evenodd" clip-rule="evenodd" fill="#FFFFFF" points="28.881,225.142 29.751,222.424 29.719,219.186 
			30.99,208.896 36.307,215.913 44.219,226.912 43.712,230.182 36.369,236.129 36.029,237.025 26.775,244.646 28.918,225.023 
			28.881,225.142 		"/>
		<polygon fill-rule="evenodd" clip-rule="evenodd" fill="#FFFFFF" points="200.377,310.962 200.85,304.462 200.652,300.667 
			202.943,299.283 224.295,298.126 200.402,324.286 200.377,310.962 		"/>
		<polygon fill-rule="evenodd" clip-rule="evenodd" fill="#FFFFFF" points="207.604,270.713 198.139,294.955 181.439,279.908 
			206.726,270.234 207.604,270.713 		"/>
		<polygon fill-rule="evenodd" clip-rule="evenodd" fill="#FFFFFF" points="119.443,179.048 93.84,170.523 116.087,156.047 
			121.406,178.904 119.443,179.048 		"/>
		<polygon fill-rule="evenodd" clip-rule="evenodd" fill="#FFFFFF" points="50.344,227.4 63.181,203.615 72.723,230.219 
			50.344,227.4 		"/>
		<polygon fill-rule="evenodd" clip-rule="evenodd" fill="#FFFFFF" points="100.556,316.672 110.115,296.426 126.896,317.301 
			126.653,318.129 100.556,316.672 		"/>
	</g>
	<circle fill-rule="evenodd" clip-rule="evenodd" fill="#E05619" cx="134.387" cy="237.976" r="6.561"/>
	<circle fill-rule="evenodd" clip-rule="evenodd" fill="#E05619" cx="129.497" cy="212.898" r="6.561"/>
	<circle fill-rule="evenodd" clip-rule="evenodd" fill="#E05619" cx="106.493" cy="234.592" r="6.56"/>
	<circle fill-rule="evenodd" clip-rule="evenodd" fill="#E05619" cx="122.797" cy="263.547" r="6.561"/>
	<circle fill-rule="evenodd" clip-rule="evenodd" fill="#E05619" cx="154.522" cy="257.341" r="6.561"/>
	<circle fill-rule="evenodd" clip-rule="evenodd" fill="#E05619" cx="158.982" cy="226.656" r="6.561"/>
	<circle fill-rule="evenodd" clip-rule="evenodd" fill="#E05619" cx="156.327" cy="192.895" r="6.561"/>
	<circle fill-rule="evenodd" clip-rule="evenodd" fill="#E05619" cx="122.307" cy="180.718" r="6.56"/>
	<circle fill-rule="evenodd" clip-rule="evenodd" fill="#E05619" cx="98.161" cy="202.974" r="6.56"/>
	<circle fill-rule="evenodd" clip-rule="evenodd" fill="#E05619" cx="76.135" cy="232.446" r="6.56"/>
	<circle fill-rule="evenodd" clip-rule="evenodd" fill="#E05619" cx="91.096" cy="263.427" r="6.561"/>
	<circle fill-rule="evenodd" clip-rule="evenodd" fill="#E05619" cx="110.356" cy="293.218" r="6.56"/>
	<circle fill-rule="evenodd" clip-rule="evenodd" fill="#E05619" cx="144.523" cy="288.762" r="6.56"/>
	<circle fill-rule="evenodd" clip-rule="evenodd" fill="#E05619" cx="177.366" cy="278.5" r="6.561"/>
	<circle fill-rule="evenodd" clip-rule="evenodd" fill="#E05619" cx="185.633" cy="244.94" r="6.561"/>
	<circle fill-rule="evenodd" clip-rule="evenodd" fill="#E05619" cx="186.368" cy="209.557" r="6.56"/>
	<circle fill-rule="evenodd" clip-rule="evenodd" fill="#E05619" cx="186.111" cy="176.127" r="6.56"/>
	<circle fill-rule="evenodd" clip-rule="evenodd" fill="#E05619" cx="149.681" cy="157.776" r="6.56"/>
	<circle fill-rule="evenodd" clip-rule="evenodd" fill="#E05619" cx="117.637" cy="153.229" r="6.56"/>
	<circle fill-rule="evenodd" clip-rule="evenodd" fill="#E05619" cx="89.238" cy="171.166" r="6.56"/>
	<circle fill-rule="evenodd" clip-rule="evenodd" fill="#E05619" cx="63.358" cy="200.797" r="6.561"/>
	<circle fill-rule="evenodd" clip-rule="evenodd" fill="#E05619" cx="48.763" cy="229.66" r="6.561"/>
	<path fill-rule="evenodd" clip-rule="evenodd" fill="#E05619" d="M62.228,257.299c1.775,3.154,0.658,7.154-2.499,8.932
		c-3.158,1.779-7.157,0.66-8.935-2.493c-1.777-3.158-0.66-7.158,2.498-8.937C56.449,253.023,60.449,254.141,62.228,257.299z"/>
	<circle fill-rule="evenodd" clip-rule="evenodd" fill="#E05619" cx="75.529" cy="294.293" r="6.56"/>
	<circle fill-rule="evenodd" clip-rule="evenodd" fill="#E05619" cx="97.113" cy="319.255" r="6.561"/>
	<circle fill-rule="evenodd" clip-rule="evenodd" fill="#E05619" cx="132.219" cy="318.678" r="6.56"/>
	<circle fill-rule="evenodd" clip-rule="evenodd" fill="#E05619" cx="168.377" cy="311.713" r="6.56"/>
	<path fill-rule="evenodd" clip-rule="evenodd" fill="#E05619" d="M204.571,294.248c1.775,3.154,0.659,7.155-2.501,8.935
		c-3.155,1.777-7.155,0.658-8.932-2.496c-1.777-3.156-0.659-7.157,2.496-8.933C198.795,289.975,202.795,291.092,204.571,294.248z"/>
	<path fill-rule="evenodd" clip-rule="evenodd" fill="#E05619" d="M215.22,264.412c1.777,3.156,0.659,7.156-2.5,8.936
		c-3.156,1.777-7.155,0.658-8.934-2.498c-1.775-3.154-0.658-7.154,2.498-8.932C209.443,260.14,213.444,261.258,215.22,264.412z"/>
	<path fill-rule="evenodd" clip-rule="evenodd" fill="#E05619" d="M220.06,225.555c1.776,3.156,0.659,7.155-2.5,8.936
		c-3.156,1.775-7.156,0.657-8.933-2.499c-1.776-3.154-0.658-7.153,2.497-8.931C214.284,221.282,218.283,222.399,220.06,225.555z"/>
	<path fill-rule="evenodd" clip-rule="evenodd" fill="#E05619" d="M216.178,191.919c1.777,3.156,0.66,7.156-2.499,8.936
		c-3.157,1.776-7.157,0.659-8.933-2.497c-1.777-3.155-0.66-7.154,2.496-8.933C210.402,187.646,214.402,188.764,216.178,191.919z"/>
	<circle fill-rule="evenodd" clip-rule="evenodd" fill="#E05619" cx="217.379" cy="167.307" r="6.561"/>
	<path fill-rule="evenodd" clip-rule="evenodd" fill="#E05619" d="M185.57,137.566c1.777,3.155,0.658,7.154-2.502,8.934
		c-3.155,1.778-7.154,0.659-8.932-2.496c-1.775-3.155-0.657-7.155,2.498-8.931C179.795,133.292,183.794,134.411,185.57,137.566z"/>
	<path fill-rule="evenodd" clip-rule="evenodd" fill="#E05619" d="M140.769,125.149c1.776,3.155,0.659,7.155-2.5,8.935
		c-3.157,1.777-7.155,0.659-8.934-2.497c-1.776-3.155-0.659-7.156,2.497-8.933C134.992,120.875,138.992,121.993,140.769,125.149z"/>
	<path fill-rule="evenodd" clip-rule="evenodd" fill="#E05619" d="M96.564,132.916c1.775,3.155,0.657,7.156-2.502,8.934
		c-3.154,1.777-7.155,0.658-8.931-2.496c-1.777-3.157-0.66-7.156,2.495-8.933C90.787,128.642,94.786,129.76,96.564,132.916z"/>
	<circle fill-rule="evenodd" clip-rule="evenodd" fill="#E05619" cx="51.907" cy="162.677" r="6.561"/>
	<path fill-rule="evenodd" clip-rule="evenodd" fill="#E05619" d="M35.665,201.332c1.777,3.155,0.659,7.154-2.501,8.935
		c-3.155,1.775-7.156,0.658-8.932-2.497c-1.778-3.156-0.658-7.155,2.497-8.933C29.889,197.058,33.887,198.176,35.665,201.332z"/>
	<circle fill-rule="evenodd" clip-rule="evenodd" fill="#E05619" cx="23.684" cy="249.368" r="6.56"/>
	<circle fill-rule="evenodd" clip-rule="evenodd" fill="#E05619" cx="39.906" cy="293.707" r="6.56"/>
	<circle fill-rule="evenodd" clip-rule="evenodd" fill="#E05619" cx="68.759" cy="327.694" r="6.56"/>
	<path fill-rule="evenodd" clip-rule="evenodd" fill="#E05619" d="M114.765,341.905c1.775,3.153,0.658,7.152-2.503,8.933
		c-3.155,1.777-7.155,0.659-8.931-2.495c-1.776-3.155-0.659-7.155,2.497-8.931C108.988,337.632,112.987,338.75,114.765,341.905z"/>
	<path fill-rule="evenodd" clip-rule="evenodd" fill="#E05619" d="M162.172,341.552c1.776,3.153,0.657,7.152-2.502,8.932
		c-3.156,1.777-7.156,0.659-8.932-2.494c-1.776-3.154-0.658-7.154,2.498-8.931C156.396,337.278,160.396,338.397,162.172,341.552z"/>
	
		<ellipse transform="matrix(0.8713 -0.4907 0.4907 0.8713 -135.1106 140.3315)" fill-rule="evenodd" clip-rule="evenodd" fill="#E05619" cx="200.011" cy="327.777" rx="6.561" ry="6.555"/>
	
		<ellipse transform="matrix(0.8714 -0.4906 0.4906 0.8714 -115.8797 150.5411)" fill-rule="evenodd" clip-rule="evenodd" fill="#E05619" cx="229.19" cy="296.29" rx="6.561" ry="6.554"/>
	<circle fill-rule="evenodd" clip-rule="evenodd" fill="#E05619" cx="243.208" cy="250.787" r="6.56"/>
	<path fill-rule="evenodd" clip-rule="evenodd" fill="#E05619" d="M245.126,201.132c1.774,3.152,0.656,7.153-2.504,8.932
		c-3.154,1.777-7.155,0.658-8.931-2.494c-1.776-3.156-0.657-7.156,2.497-8.932C239.348,196.857,243.349,197.976,245.126,201.132z"/>
	
		<text transform="matrix(0.9498 -0.3128 0.3128 0.9498 105.4111 238.8037)" fill="#FFFFFF" font-family="'MyriadPro-Regular'" font-size="10.378">2</text>
	
		<text transform="matrix(0.9555 -0.295 0.295 0.9555 122.1836 268.207)" fill="#FFFFFF" font-family="'MyriadPro-Regular'" font-size="10.378">1</text>
	
		<text transform="matrix(0.9859 -0.1672 0.1672 0.9859 149.875 261.8682)" fill="#FFFFFF" font-family="'MyriadPro-Regular'" font-size="10.378"> 0</text>
	
		<text transform="matrix(0.9495 -0.3137 0.3137 0.9495 158.3799 230.3994)" fill="#FFFFFF" font-family="'MyriadPro-Regular'" font-size="10.378">4</text>
	
		<text transform="matrix(0.9669 -0.2553 0.2553 0.9669 128.0518 216.9941)" fill="#FFFFFF" font-family="'MyriadPro-Regular'" font-size="10.378">3</text>
	
		<text transform="matrix(0.9669 -0.2553 0.2553 0.9669 94.2656 207.3779)" fill="#FFFFFF" font-family="'MyriadPro-Regular'" font-size="10.378">12</text>
	
		<text transform="matrix(0.9669 -0.2553 0.2553 0.9669 72.627 236.5176)" fill="#FFFFFF" font-family="'MyriadPro-Regular'" font-size="10.378">11</text>
	
		<text transform="matrix(0.9669 -0.2553 0.2553 0.9669 87.125 268.5137)" fill="#FFFFFF" font-family="'MyriadPro-Regular'" font-size="10.378">10</text>
	
		<text transform="matrix(0.9669 -0.2553 0.2553 0.9669 109.5977 297.3086)" fill="#FFFFFF" font-family="'MyriadPro-Regular'" font-size="10.378">9</text>
	
		<text transform="matrix(0.9669 -0.2553 0.2553 0.9669 140.499 293.209)" fill="#FFFFFF" font-family="'MyriadPro-Regular'" font-size="10.378"> 8</text>
	
		<text transform="matrix(0.9669 -0.2553 0.2553 0.9669 174.7529 282.666)" fill="#FFFFFF" font-family="'MyriadPro-Regular'" font-size="10.378"> 7</text>
	
		<text transform="matrix(0.9669 -0.2553 0.2553 0.9669 184.1953 248.5957)" fill="#FFFFFF" font-family="'MyriadPro-Regular'" font-size="10.378">6</text>
	
		<text transform="matrix(0.9669 -0.2553 0.2553 0.9669 185.3555 214.4014)" fill="#FFFFFF" font-family="'MyriadPro-Regular'" font-size="10.378">5</text>
	
		<text transform="matrix(0.9669 -0.2553 0.2553 0.9669 151.8936 197.5146)" fill="#FFFFFF" font-family="'MyriadPro-Regular'" font-size="10.378">14</text>
	
		<text transform="matrix(0.9669 -0.2553 0.2553 0.9669 117.874 185.3379)" fill="#FFFFFF" font-family="'MyriadPro-Regular'" font-size="10.378">13</text>
	
		<text transform="matrix(0.9669 -0.2553 0.2553 0.9669 85.4727 175.9668)" fill="#FFFFFF" font-family="'MyriadPro-Regular'" font-size="10.378">27</text>
	
		<text transform="matrix(0.9669 -0.2553 0.2553 0.9669 58.3916 204.8369)" fill="#FFFFFF" font-family="'MyriadPro-Regular'" font-size="10.378">26</text>
	
		<text transform="matrix(0.9669 -0.2553 0.2553 0.9669 43.9961 234.2168)" fill="#FFFFFF" font-family="'MyriadPro-Regular'" font-size="10.378">25</text>
	
		<text transform="matrix(0.9669 -0.2553 0.2553 0.9669 51.7441 265.0732)" fill="#FFFFFF" font-family="'MyriadPro-Regular'" font-size="10.378">24</text>
	
		<text transform="matrix(0.9669 -0.2553 0.2553 0.9669 71.7266 298.5811)" fill="#FFFFFF" font-family="'MyriadPro-Regular'" font-size="10.378">23</text>
	
		<text transform="matrix(0.9669 -0.2553 0.2553 0.9669 93.6104 323.6748)" fill="#FFFFFF" font-family="'MyriadPro-Regular'" font-size="10.378">22</text>
	
		<text transform="matrix(0.9669 -0.2553 0.2553 0.9669 128.4434 322.8496)" fill="#FFFFFF" font-family="'MyriadPro-Regular'" font-size="10.378">21</text>
	
		<text transform="matrix(0.9669 -0.2553 0.2553 0.9669 164.2256 316.5615)" fill="#FFFFFF" font-family="'MyriadPro-Regular'" font-size="10.378">20</text>
	
		<text transform="matrix(0.9669 -0.2553 0.2553 0.9669 194.5234 301.7295)" fill="#FFFFFF" font-family="'MyriadPro-Regular'" font-size="10.378">19</text>
	
		<text transform="matrix(0.9669 -0.2553 0.2553 0.9669 205.1719 271.8945)" fill="#FFFFFF" font-family="'MyriadPro-Regular'" font-size="10.378">18</text>
	
		<text transform="matrix(0.9669 -0.2553 0.2553 0.9669 210.5088 233.7275)" fill="#FFFFFF" font-family="'MyriadPro-Regular'" font-size="10.378">17</text>
	
		<text transform="matrix(0.9669 -0.2553 0.2553 0.9669 206.3594 199.1289)" fill="#FFFFFF" font-family="'MyriadPro-Regular'" font-size="10.378">16</text>
	
		<text transform="matrix(0.9669 -0.2553 0.2553 0.9669 182.9658 180.7285)" fill="#FFFFFF" font-family="'MyriadPro-Regular'" font-size="10.378">15</text>
	
		<text transform="matrix(0.9669 -0.2553 0.2553 0.9669 145.9082 161.9766)" fill="#FFFFFF" font-family="'MyriadPro-Regular'" font-size="10.378">29</text>
	
		<text transform="matrix(0.9669 -0.2553 0.2553 0.9669 113.124 157.9121)" fill="#FFFFFF" font-family="'MyriadPro-Regular'" font-size="10.378">28</text>
	
		<text transform="matrix(0.9669 -0.2553 0.2553 0.9669 87.0215 140.3457)" fill="#FFFFFF" font-family="'MyriadPro-Regular'" font-size="10.378">43</text>
	
		<text transform="matrix(0.9669 -0.2553 0.2553 0.9669 48.002 167.583)" fill="#FFFFFF" font-family="'MyriadPro-Regular'" font-size="10.378">42</text>
	
		<text transform="matrix(0.9669 -0.2553 0.2553 0.9669 25.626 209.7568)" fill="#FFFFFF" font-family="'MyriadPro-Regular'" font-size="10.378">41</text>
	
		<text transform="matrix(0.9669 -0.2553 0.2553 0.9669 20.2168 253.917)" fill="#FFFFFF" font-family="'MyriadPro-Regular'" font-size="10.378">40</text>
	
		<text transform="matrix(0.9669 -0.2553 0.2553 0.9669 35.7544 298.7441)" fill="#FFFFFF" font-family="'MyriadPro-Regular'" font-size="10.378">39</text>
	
		<text transform="matrix(0.9669 -0.2553 0.2553 0.9669 64.46 332.8428)" fill="#FFFFFF" font-family="'MyriadPro-Regular'" font-size="10.378">38</text>
	
		<text transform="matrix(0.9669 -0.2553 0.2553 0.9669 105.2529 349.7842)" fill="#FFFFFF" font-family="'MyriadPro-Regular'" font-size="10.378">37</text>
	
		<text transform="matrix(0.9669 -0.2553 0.2553 0.9669 152.6133 348.7832)" fill="#FFFFFF" font-family="'MyriadPro-Regular'" font-size="10.378">36</text>
	
		<text transform="matrix(0.9669 -0.2553 0.2553 0.9669 196.4121 332.1475)" fill="#FFFFFF" font-family="'MyriadPro-Regular'" font-size="10.378">35</text>
	
		<text transform="matrix(0.9669 -0.2553 0.2553 0.9669 225.4648 300.5215)" fill="#FFFFFF" font-family="'MyriadPro-Regular'" font-size="10.378">34</text>
	
		<text transform="matrix(0.9669 -0.2553 0.2553 0.9669 240.0781 255.2988)" fill="#FFFFFF" font-family="'MyriadPro-Regular'" font-size="10.378">339</text>
	
		<text transform="matrix(0.9669 -0.2553 0.2553 0.9669 235.4199 207.5664)" fill="#FFFFFF" font-family="'MyriadPro-Regular'" font-size="10.378">32</text>
	
		<text transform="matrix(0.9669 -0.2553 0.2553 0.9669 212.6475 171.0459)" fill="#FFFFFF" font-family="'MyriadPro-Regular'" font-size="10.378">31</text>
	
		<text transform="matrix(0.9669 -0.2553 0.2553 0.9669 175.4316 145.6348)" fill="#FFFFFF" font-family="'MyriadPro-Regular'" font-size="10.378">30</text>
	
		<text transform="matrix(0.9669 -0.2553 0.2553 0.9669 130.6299 133.2168)" fill="#FFFFFF" font-family="'MyriadPro-Regular'" font-size="10.378">44</text>
	<text transform="matrix(0.9999 -0.0157 0.0157 0.9999 211.6162 138.4932)" font-family="'MyriadPro-Regular'" font-size="12">BOTTOM</text>
	<text transform="matrix(1 0 0 1 121.4062 80)" font-family="'MyriadPro-Regular'" font-size="12">10:00 </text>
</g>
<g>
	<text transform="matrix(1 0 0 1 120.2188 33.0566)" font-family="'MyriadPro-Regular'" font-size="6.6856">CAULDRON</text>
	<line fill="#FFFFFF" stroke="#000000" stroke-width="3" stroke-miterlimit="10" x1="135.833" y1="8" x2="135.833" y2="24.5"/>
	<line fill="#FFFFFF" stroke="#000000" stroke-width="3" stroke-miterlimit="10" x1="136.06" y1="8" x2="130.595" y2="13.465"/>
	<line fill="#FFFFFF" stroke="#000000" stroke-width="3" stroke-miterlimit="10" x1="142.078" y1="13.465" x2="135.06" y2="6.834"/>
</g>
</svg>
